<svg xmlns="http://www.w3.org/2000/svg" viewBox="-21 -21 18 17">
  <path d="M -17 -4 h 1 H -6.57 C -5.5 -4 -4.59 -4.67 -4.38 -5.61 l 1.34 -6 C -2.77 -12.85 -3.82 -14 -5.23 -14 h -4.23 l 1.52 -4.94 C -7.62 -19.97 -8.46 -21 -9.62 -21 c -0.58 0 -1.14 0.24 -1.52 0.65 L -17 -14 h -4 V -4 H -17 z M -10.4 -19.67 C -10.21 -19.88 -9.92 -20 -9.62 -20 c 0.26 -0 0.5 0.11 0.63 0.3 c 0.07 0.1 0.15 0.26 0.09 0.47 l -1.52 4.94 l -0.4 1.29 H -9.46 H -5.23 c 0.41 -0 0.8 0.17 1.03 0.46 c 0.12 0.15 0.25 0.4 0.18 0.72 l -1.34 6 C -5.46 -5.35 -5.97 -5 -6.57 -5 H -16 v -8.61 L -10.4 -19.67 z M -20 -13 h 3 V -5 h -3 V -13 z" fill="#ffffff"/>
</svg>